<svg width="95" height="32" viewBox="0 0 95 32" fill="none" xmlns="http://www.w3.org/2000/svg">
<path fill-rule="evenodd" clip-rule="evenodd" d="M15.9135 18.4275L15.6439 17.6865L11.9934 7.91497C11.7738 8.48731 11.2661 9.86929 10.7171 11.349L8.61743 17.1142C8.52136 17.3934 8.5762 17.533 8.64482 17.6307C8.79583 17.8122 9.12669 17.8124 9.64813 17.8124H9.74425L9.7427 18.4264H5.81777L5.81771 17.8124H6.11963C6.65485 17.8124 7.09411 17.5749 7.42348 16.9048L7.82141 15.9835L11.4581 6.51904L10.8132 4.77411H14.2029L18.8826 17.2957L19.3101 18.4275H15.9135ZM0 0V12.6193C0 21.7906 6.98528 24.9734 12.0904 27.3046H12.1042L12.5159 27.5C12.6119 27.4442 12.708 27.4023 12.8178 27.3604C12.8726 27.3325 12.9412 27.3046 12.9963 27.2766C18.1151 24.9594 25.1278 21.7627 25.1278 12.6193V0H0Z" fill="white"/>
<path d="M33.68 15.134C33.68 14.238 33.872 14.142 35.024 13.998V13.518H30.448V13.998C31.6 14.142 31.792 14.238 31.792 15.134V23.134C31.792 24.03 31.6 24.126 30.448 24.27V24.75H38.752L39.28 21.47H38.816C37.824 23.31 37.28 24.174 36 24.174H35.168C34.112 24.174 33.68 23.95 33.68 23.086V15.134ZM43.2068 23.822C42.3108 23.822 41.8788 23.23 41.8788 22.366C41.8788 21.502 42.3108 21.086 43.0628 20.798L44.7428 20.11V23.118C44.1828 23.566 43.7668 23.822 43.2068 23.822ZM46.5348 18.734C46.5348 16.974 45.5268 16.206 43.6068 16.206C41.9268 16.206 40.6148 16.894 40.6148 18.158C40.6148 18.638 40.8708 18.958 41.2868 19.086L42.3428 18.942C42.2628 18.606 42.2148 18.334 42.2148 18.046C42.2148 17.246 42.5668 16.654 43.4148 16.654C44.3748 16.654 44.7428 17.39 44.7428 18.398V19.614L42.3908 20.478C41.1428 20.942 40.1508 21.502 40.1508 22.862C40.1508 24.094 40.9668 24.894 42.2468 24.894C43.3668 24.894 44.2308 24.142 44.7748 23.486C44.9028 24.366 45.3988 24.91 46.2308 24.91C46.9028 24.91 47.4788 24.622 47.8948 24.062L47.7987 23.774C47.5908 23.87 47.3668 23.95 47.1108 23.95C46.6628 23.95 46.5348 23.614 46.5348 22.974V18.734ZM59.0765 23.534C59.0765 24.126 58.8525 24.238 58.0525 24.286V24.75H61.9245V24.286C61.1245 24.238 60.8685 24.126 60.8685 23.534V18.798C60.8685 17.086 60.2125 16.206 58.7565 16.206C57.4765 16.206 56.5645 16.958 55.8445 17.79C55.6205 16.702 54.9805 16.206 53.8285 16.206C52.5325 16.206 51.7165 16.91 50.9965 17.742L51.0605 16.206H50.7885L48.1965 17.038V17.262L49.2045 17.822V23.534C49.2045 24.126 48.9485 24.238 48.1485 24.286V24.75H52.0365V24.286C51.2365 24.238 50.9965 24.126 50.9965 23.534V18.142C51.5565 17.694 52.1485 17.31 52.8845 17.31C53.7805 17.31 54.1485 17.806 54.1485 18.862V23.534C54.1485 24.126 53.9085 24.238 53.1085 24.286V24.75H56.9645V24.286C56.1645 24.238 55.9405 24.126 55.9405 23.534V18.142C56.5005 17.694 57.0925 17.31 57.8285 17.31C58.7245 17.31 59.0765 17.806 59.0765 18.862V23.534ZM63.1018 13.79V23.774C63.9338 24.494 65.1818 24.91 66.5578 24.91C68.8778 24.91 70.7498 23.102 70.7498 20.062C70.7498 17.678 69.5658 16.206 67.5818 16.206C66.3338 16.206 65.4698 16.83 64.8938 17.662V12.222H64.6218L62.0938 13.006V13.246L63.1018 13.79ZM66.5578 24.398C65.4858 24.398 64.8938 23.806 64.8938 22.462V18.046C65.2938 17.614 65.9338 17.31 66.5738 17.31C68.2538 17.31 68.9418 18.894 68.9418 20.766C68.9418 22.798 68.0298 24.398 66.5578 24.398ZM75.8078 16.766C76.8318 16.766 77.5038 17.582 77.5038 18.958V23.054C77.0878 23.486 76.5438 23.71 75.8718 23.71C74.2878 23.71 73.4398 22.206 73.4398 20.254C73.4398 18.158 74.3518 16.766 75.8078 16.766ZM77.5038 13.79V16.814C77.1038 16.446 76.4798 16.222 75.6958 16.222C73.4398 16.222 71.7118 17.998 71.7118 20.958C71.7118 23.294 72.9758 24.91 74.9278 24.91C76.0638 24.91 76.8638 24.302 77.5038 23.422L77.4398 24.91H77.7598L80.4158 24.334V23.918L79.9998 23.886C79.3278 23.822 79.2958 23.678 79.2958 23.134V12.222H79.0398L76.4958 13.006V13.246L77.5038 13.79ZM84.0818 23.822C83.1858 23.822 82.7538 23.23 82.7538 22.366C82.7538 21.502 83.1858 21.086 83.9378 20.798L85.6178 20.11V23.118C85.0578 23.566 84.6418 23.822 84.0818 23.822ZM87.4098 18.734C87.4098 16.974 86.4018 16.206 84.4818 16.206C82.8018 16.206 81.4898 16.894 81.4898 18.158C81.4898 18.638 81.7458 18.958 82.1618 19.086L83.2178 18.942C83.1378 18.606 83.0898 18.334 83.0898 18.046C83.0898 17.246 83.4418 16.654 84.2898 16.654C85.2498 16.654 85.6178 17.39 85.6178 18.398V19.614L83.2658 20.478C82.0178 20.942 81.0258 21.502 81.0258 22.862C81.0258 24.094 81.8418 24.894 83.1218 24.894C84.2418 24.894 85.1058 24.142 85.6498 23.486C85.7778 24.366 86.2738 24.91 87.1058 24.91C87.7778 24.91 88.3538 24.622 88.7698 24.062L88.6737 23.774C88.4658 23.87 88.2418 23.95 87.9858 23.95C87.5378 23.95 87.4098 23.614 87.4098 22.974V18.734Z" fill="white"/>
<path d="M30.63 3.15V9.39C31.15 9.84 31.93 10.1 32.79 10.1C34.24 10.1 35.41 8.97 35.41 7.07C35.41 5.58 34.67 4.66 33.43 4.66C32.65 4.66 32.11 5.05 31.75 5.57V2.17H31.58L30 2.66V2.81L30.63 3.15ZM32.79 9.78C32.12 9.78 31.75 9.41 31.75 8.57V5.81C32 5.54 32.4 5.35 32.8 5.35C33.85 5.35 34.28 6.34 34.28 7.51C34.28 8.78 33.71 9.78 32.79 9.78ZM40.6722 5.77L40.7122 4.67H40.5522L38.9022 4.99V5.26L39.0522 5.28C39.4922 5.35 39.5622 5.47 39.5622 5.82V8.92C39.2022 9.18 38.8522 9.4 38.3822 9.4C37.7922 9.4 37.5422 9.01 37.5422 8.33V5.81L37.5922 4.67H37.4322L35.7622 4.99V5.26L35.9222 5.28C36.3522 5.35 36.4322 5.47 36.4322 5.82V8.51C36.4322 9.62 36.9622 10.1 37.8322 10.1C38.5722 10.1 39.1022 9.63 39.5622 9.15L39.5222 10.1H39.7222L41.3722 9.74V9.48L41.1122 9.46C40.6922 9.42 40.6722 9.33 40.6722 8.99V5.77ZM43.4744 4.66H43.3144L41.7244 5.18V5.32L42.3544 5.67V9.24C42.3544 9.61 42.1944 9.68 41.6944 9.71V10H44.1344V9.71C43.6344 9.68 43.4744 9.61 43.4744 9.24V4.66ZM42.8844 3.95C43.2944 3.95 43.6044 3.63 43.6044 3.25C43.6044 2.86 43.2944 2.54 42.8844 2.54C42.4744 2.54 42.1744 2.86 42.1744 3.25C42.1744 3.63 42.4744 3.95 42.8844 3.95ZM46.2571 2.17H46.0871L44.5071 2.66V2.81L45.1371 3.15V9.24C45.1371 9.61 44.9771 9.68 44.4771 9.71V10H46.9171V9.71C46.4171 9.68 46.2571 9.61 46.2571 9.24V2.17ZM48.8403 3.49H48.6003C48.2203 4.13 47.7003 4.68 47.0803 4.99V5.17H47.7303V8.6C47.7303 9.69 48.3103 10.1 49.0703 10.1C49.7303 10.1 50.2003 9.74 50.4903 9.31L50.3803 9.16C50.1203 9.35 49.9103 9.44 49.6103 9.44C49.0903 9.44 48.8403 9.16 48.8403 8.48V5.17H50.2103V4.76H48.8403V3.49ZM53.1398 3.15V9.39C53.6598 9.84 54.4398 10.1 55.2998 10.1C56.7498 10.1 57.9198 8.97 57.9198 7.07C57.9198 5.58 57.1798 4.66 55.9398 4.66C55.1598 4.66 54.6198 5.05 54.2598 5.57V2.17H54.0898L52.5098 2.66V2.81L53.1398 3.15ZM55.2998 9.78C54.6298 9.78 54.2598 9.41 54.2598 8.57V5.81C54.5098 5.54 54.9098 5.35 55.3098 5.35C56.3598 5.35 56.7898 6.34 56.7898 7.51C56.7898 8.78 56.2198 9.78 55.2998 9.78ZM61.1773 8.86L59.8873 5.66C59.8473 5.54 59.8273 5.46 59.8273 5.38C59.8273 5.15 60.0073 5.11 60.5173 5.05V4.76H58.0773V5.05C58.4373 5.14 58.4973 5.21 58.5873 5.42L60.6573 10.16L60.4773 10.64C60.2473 11.26 59.9073 11.41 59.3673 11.41C59.0873 11.41 58.9373 11.37 58.7473 11.32V11.71C58.8373 12.01 59.1673 12.19 59.4873 12.19C60.1173 12.19 60.4273 11.76 60.7273 11L62.8873 5.42C62.9673 5.22 63.0373 5.14 63.3973 5.05V4.76H61.7373V5.05C62.2473 5.11 62.4273 5.15 62.4273 5.38C62.4273 5.46 62.4073 5.54 62.3673 5.66L61.1773 8.86Z" fill="white"/>
</svg>
