<?xml version="1.0" encoding="utf-8"?>
<!-- Generator: Adobe Illustrator 25.4.1, SVG Export Plug-In . SVG Version: 6.00 Build 0)  -->
<svg version="1.1" id="Layer_1" xmlns="http://www.w3.org/2000/svg" xmlns:xlink="http://www.w3.org/1999/xlink" x="0px" y="0px"
	 viewBox="0 0 2000 388" style="enable-background:new 0 0 2000 388;" xml:space="preserve">
<style type="text/css">
	.st0{fill:#FFFFFF;}
	.st1{fill:#FF4B00;}
</style>
<g>
	<g>
		<path class="st0" d="M95.4,153c-12.2,12.2-12.2,31.9,0,44.1l59.1,59.1l-25,25l-63.4-63.4c-23.6-23.6-23.6-61.9,0-85.5l131-131
			l-67,0l-99.1,99.1c-41.2,41.2-41.2,108,0,149.2l98.6,98.6l0,0l151.2-151.2c12.2-12.2,12.2-31.9,0-44.1l-59.1-59.1l25-25l63.4,63.4
			c23.6,23.6,23.6,61.9,0,85.5l-131,131l67,0l99.1-99.1c41.2-41.2,41.2-108,0-149.2L246.6,1.8l0,0L95.4,153z"/>
	</g>
	<g>
		<g>
			<path class="st0" d="M521.1,148.5V1.3h52.1c18.9,0,34.3,2,43.2,11.1c5.9,5.9,9.5,14.8,9.5,26.7c0,19.8-10.4,28-19.1,32.8v0.4
				c9.8,4.1,23.4,15,23.4,35.4c0,13.5-4.1,23.2-10.4,29.5c-9.8,9.6-25.4,11.3-44.7,11.3H521.1z M574.2,64.1c9.5,0,16.1-0.7,20.8-5.6
				c3.3-3,5-8.9,5-16.5c0-7.4-1.7-13-5-16.3c-4.8-4.8-11.3-5.6-20.8-5.6h-28.4v44.1H574.2z M577.3,129.8c10.2,0,16.9-1.1,21.9-6.1
				c3.7-3.7,5.2-9.8,5.2-17.6c0-8-1.5-13.7-5.2-17.4c-5-5-11.7-6.1-21.9-6.1h-31.5v47.1H577.3z"/>
		</g>
		<g>
			<path class="st0" d="M675.2,148.5H652V1.3h23.2V148.5z"/>
		</g>
		<g>
			<path class="st0" d="M791.5,139.2c-9.5,8.9-23,12.4-38.6,12.4c-15.8,0-29.3-3.5-38.9-12.4c-9.5-8.9-15.2-23.7-15.2-46
				c0-22.6,5.6-37.1,15.2-46c9.5-9.1,23-12.4,38.9-12.4c15.6,0,29.1,3.3,38.6,12.4c9.8,8.9,15.4,23.4,15.4,46
				C807,115.5,801.3,130.3,791.5,139.2z M773.5,59.7c-5.2-5.2-11.9-6.9-20.6-6.9c-8.7,0-15.6,1.7-20.6,6.9
				c-6.1,5.9-8.9,16.5-8.9,33.4s2.8,27.4,8.9,33.4c5,5,11.9,6.9,20.6,6.9c8.7,0,15.4-2,20.6-6.9c5.9-6.1,8.7-16.5,8.7-33.4
				S779.4,65.6,773.5,59.7z"/>
		</g>
		<g>
			<path class="st0" d="M916.8,139.2c-9.5,8.9-23,12.4-38.6,12.4c-15.8,0-29.3-3.5-38.9-12.4c-9.5-8.9-15.2-23.7-15.2-46
				c0-22.6,5.6-37.1,15.2-46c9.5-9.1,23-12.4,38.9-12.4c15.6,0,29.1,3.3,38.6,12.4c9.8,8.9,15.4,23.4,15.4,46
				C932.2,115.5,926.6,130.3,916.8,139.2z M898.8,59.7c-5.2-5.2-11.9-6.9-20.6-6.9c-8.7,0-15.6,1.7-20.6,6.9
				c-6.1,5.9-8.9,16.5-8.9,33.4s2.8,27.4,8.9,33.4c5,5,11.9,6.9,20.6,6.9c8.7,0,15.4-2,20.6-6.9c5.9-6.1,8.7-16.5,8.7-33.4
				S904.6,65.6,898.8,59.7z"/>
		</g>
		<g>
			<path class="st0" d="M1083.7,35.4c25.8,0,34.5,10.9,34.5,34.5v78.6H1095V74.3c0-14.5-4.1-19.8-17.4-19.8
				c-10.9,0-21.9,6.5-29.1,16.3v77.7h-23.2V74.3c0-14.5-4.1-19.8-17.1-19.8c-10.9,0-21.9,6.5-29.1,16.5v77.5h-23.2V37.8h16.3l3.3,15
				h0.4c11.5-12.6,25-17.4,38.4-17.4c17.8,0,27.4,5.4,31.5,16.7h0.4C1057.5,40,1070.5,35.4,1083.7,35.4z"/>
		</g>
		<g>
			<path class="st0" d="M1212.2,148.5h-24.7V1.3h24.7V148.5z"/>
		</g>
		<g>
			<path class="st0" d="M1263.6,52.8c12.4-12.6,27.1-17.4,41.7-17.4c27.3,0,36.5,10.9,36.5,34.5v78.6h-23.2v-74
				c0-14.8-4.6-19.7-19.3-19.7c-12.2,0-24.5,6.3-32.3,16.3v77.5h-23.2V37.8h16.3l3.3,15H1263.6z"/>
		</g>
		<g>
			<path class="st0" d="M1430.8,117c0-13.9-10.4-14.3-24.5-14.5c-20.2-0.6-41.9-4.1-41.9-34.5c0-25,21.3-33.2,48.2-33.2
				c6.3,0,22.8,0.9,32.3,4.1v18c-11.9-3.3-25.4-3.9-32.3-3.9c-16.1,0-24.7,4.6-24.7,14.1c0,13.5,11.1,13.2,23.9,13.7
				c19.3,0.7,42.5,3.7,42.5,34.7c0,25.2-22.4,36-52.1,36c-6.1,0-23.9-1.3-36.2-5.4V127c12.4,3.7,28.9,5,36.2,5
				C1422.7,132,1430.8,126.8,1430.8,117z"/>
		</g>
		<g>
			<path class="st0" d="M1583.8,23h-26.5V1.3h26.5V23z M1582.3,148.5h-23.2V37.8h23.2V148.5z"/>
		</g>
		<g>
			<path class="st0" d="M1773.8,133.3c-12.4,12.8-27.1,17.6-41.7,17.6c-27.4,0-36.5-11.5-36.5-35.2V37.8h23.2v74
				c0,14.5,4.6,19.8,19.3,19.8c12.2,0,24.5-6.5,32.3-16.3V37.8h23.2v110.7h-16.3l-3.3-15.2H1773.8z"/>
		</g>
		<g>
			<path class="st0" d="M1890.8,146.1c-7.8,3.3-19.1,4.3-27.8,4.3c-24.3,0-32.1-8.2-32.1-38.6V55.4h-18.7V37.6h20.6V13.1h21.5v24.5
				h35.4v17.8h-35.6v56.2c0,16.3,2.8,20,16.9,20c4.6,0,14.5-1.3,19.7-3.5V146.1z"/>
		</g>
		<g>
			<path class="st0" d="M1927.1,98.1c0.2,11.7,2,21.1,8.2,27.1c5.4,5.4,13.7,7.6,26.3,7.6c8.5,0,22.6-1.1,33.6-4.8v18
				c-10.9,3.7-26.9,5.4-38,5.4c-39.1,0-54.9-18.7-54.9-58.4c0-44.1,22.8-58.4,51.7-58.4c32.1,0,46,15.8,46,46.9
				c0,3.3-0.4,11.5-1.1,16.5H1927.1z M1935.5,59.1c-4.6,4.6-6.9,11.7-7.8,21.9h49.7c0.2-2.8,0.2-4.1,0.2-4.6c0-7.8-1.7-14.1-5.6-18
				c-3.9-4.1-10.2-5.6-17.8-5.6C1947.3,52.8,1940.3,54.3,1935.5,59.1z"/>
		</g>
		<g>
			<path class="st0" d="M603.3,339.2c-9.5,8.9-23,12.4-38.6,12.4c-15.8,0-29.3-3.5-38.9-12.4c-9.5-8.9-15.2-23.7-15.2-46
				c0-22.6,5.6-37.1,15.2-46c9.5-9.1,23-12.4,38.9-12.4c15.6,0,29.1,3.3,38.6,12.4c9.8,8.9,15.4,23.4,15.4,46
				C618.7,315.5,613,330.3,603.3,339.2z M585.2,259.8c-5.2-5.2-11.9-6.9-20.6-6.9c-8.7,0-15.6,1.7-20.6,6.9
				c-6.1,5.9-8.9,16.5-8.9,33.4s2.8,27.4,8.9,33.4c5,5,11.9,6.9,20.6,6.9c8.7,0,15.4-2,20.6-6.9c5.9-6.1,8.7-16.5,8.7-33.4
				S591.1,265.6,585.2,259.8z"/>
		</g>
		<g>
			<path class="st0" d="M672.3,348.5h-23.2v-93.1h-18.7v-16.9h18.7v-5.6c0-27.6,12.2-33.9,37.5-33.9c5.2,0,14.6,1.4,18.6,2.6v17.1
				c-5.2-1.2-12.9-2-17-2c-9.6,0-15.9,3.3-15.9,15.2v5.9h30.5v17.6h-30.5V348.5z"/>
		</g>
		<g>
			<path class="st0" d="M822.5,348.5h-25V220.7h-42.3v-19.3h109.6v19.3h-42.3V348.5z"/>
		</g>
		<g>
			<path class="st0" d="M885.2,298.2c0.2,11.7,2,21.1,8.2,27.1c5.4,5.4,13.7,7.6,26.3,7.6c8.5,0,22.6-1.1,33.6-4.8v18
				c-10.9,3.7-26.9,5.4-38,5.4c-39.1,0-54.9-18.7-54.9-58.4c0-44.1,22.8-58.4,51.7-58.4c32.1,0,46,15.8,46,46.9
				c0,3.3-0.4,11.5-1.1,16.5H885.2z M893.7,259.1c-4.6,4.6-6.9,11.7-7.8,21.9h49.7c0.2-2.8,0.2-4.1,0.2-4.6c0-7.8-1.7-14.1-5.6-18
				c-3.9-4.1-10.2-5.6-17.8-5.6C905.4,252.8,898.5,254.3,893.7,259.1z"/>
		</g>
		<g>
			<path class="st0" d="M1061.5,346.2c-11.9,4.1-22.8,5.4-31.7,5.4c-38,0-54.3-18.5-54.3-58.4c0-32.8,10-58.4,55.1-58.4
				c7.2,0,17.8,0.6,28,4.1v18c-8.7-2.8-18.5-3.7-25.4-3.7c-11.1,0-18.9,2-24.3,7.4c-5.9,5.9-8.7,17.8-8.7,32.6
				c0,15,2.6,25.4,8.9,31.7c5.4,5.4,13.2,6.9,24.1,6.9c6.3,0,17.6-1.1,28.2-4.8V346.2z"/>
		</g>
		<g>
			<path class="st0" d="M1143.6,235.5c27.3,0,36.5,10.9,36.5,34.5v78.6h-23.2v-74c0-14.8-4.6-19.7-19.3-19.7
				c-12.2,0-24.5,6.3-32.3,16.3v77.5h-23.2V201.4h23.2v48.4h0.4C1117.3,239.4,1130.5,235.5,1143.6,235.5z"/>
		</g>
		<g>
			<path class="st0" d="M1228.4,252.8c12.4-12.6,27.1-17.4,41.7-17.4c27.4,0,36.5,10.9,36.5,34.5v78.6h-23.2v-74
				c0-14.8-4.6-19.7-19.3-19.7c-12.1,0-24.5,6.3-32.3,16.3v77.5h-23.2V237.8h16.3l3.3,15H1228.4z"/>
		</g>
		<g>
			<path class="st0" d="M1421.2,339.2c-9.5,8.9-23,12.4-38.6,12.4c-15.8,0-29.3-3.5-38.9-12.4c-9.5-8.9-15.2-23.7-15.2-46
				c0-22.6,5.6-37.1,15.2-46c9.5-9.1,23-12.4,38.9-12.4c15.6,0,29.1,3.3,38.6,12.4c9.8,8.9,15.4,23.4,15.4,46
				C1436.6,315.5,1431,330.3,1421.2,339.2z M1403.2,259.8c-5.2-5.2-11.9-6.9-20.6-6.9c-8.7,0-15.6,1.7-20.6,6.9
				c-6.1,5.9-8.9,16.5-8.9,33.4s2.8,27.4,8.9,33.4c5,5,11.9,6.9,20.6,6.9c8.7,0,15.4-2,20.6-6.9c5.9-6.1,8.7-16.5,8.7-33.4
				S1409,265.6,1403.2,259.8z"/>
		</g>
		<g>
			<path class="st0" d="M1483.5,348.5h-23.2V201.4h23.2V348.5z"/>
		</g>
		<g>
			<path class="st0" d="M1599.9,339.2c-9.5,8.9-23,12.4-38.6,12.4c-15.8,0-29.3-3.5-38.9-12.4c-9.5-8.9-15.2-23.7-15.2-46
				c0-22.6,5.6-37.1,15.2-46c9.5-9.1,23-12.4,38.9-12.4c15.6,0,29.1,3.3,38.6,12.4c9.8,8.9,15.4,23.4,15.4,46
				C1615.3,315.5,1609.6,330.3,1599.9,339.2z M1581.8,259.8c-5.2-5.2-11.9-6.9-20.6-6.9c-8.7,0-15.6,1.7-20.6,6.9
				c-6.1,5.9-8.9,16.5-8.9,33.4s2.8,27.4,8.9,33.4c5,5,11.9,6.9,20.6,6.9c8.7,0,15.4-2,20.6-6.9c5.9-6.1,8.7-16.5,8.7-33.4
				S1587.7,265.6,1581.8,259.8z"/>
		</g>
		<g>
			<path class="st0" d="M1733.1,342.9c0,38.9-28.9,45.1-53,45.1c-10.2,0-27.8-1.3-39.5-5.4v-19.1c11.7,3.7,25.4,5.2,36.7,5.2
				c23.2,0,32.6-7.8,32.6-24.1v-13.9h-0.4c-9.1,8.2-20,11.5-30.4,11.5c-31,0-46.7-16.7-46.7-53.4c0-35.4,17.6-53.4,51.9-53.4
				c8.2,0,21.3,2.4,30.6,9.8h0.4l2.8-7.4h15V342.9z M1709.9,262.4c-5.6-5.4-15.2-8.2-24.1-8.2c-19.8,0-28.7,10.6-28.7,34.7
				c0,25.8,8.9,34.3,26.7,34.3c10,0,20.2-6.1,26-14.5V262.4z"/>
		</g>
		<g>
			<path class="st0" d="M1859.9,237.8L1799.8,385h-24.1l16.3-39.9l-43.9-107.2h25l18.5,47.1c5.4,14.1,8.7,22.8,13,35.6h0.4
				c4.1-12.8,7.6-21.7,12.8-35.6l18.7-47.1H1859.9z"/>
		</g>
		<g>
			<path class="st0" d="M1679.6,146.1c-7.8,3.3-19.1,4.3-27.8,4.3c-24.3,0-32.1-8.2-32.1-38.6V55.4H1601V37.6h20.6V13.1h21.5v24.5
				h35.4v17.8h-35.6v56.2c0,16.3,2.8,20,16.9,20c4.6,0,14.5-1.3,19.7-3.5V146.1z"/>
		</g>
		<g>
			<path class="st0" d="M1541,146.1c-7.8,3.3-19.1,4.3-27.8,4.3c-24.3,0-32.1-8.2-32.1-38.6V55.4h-18.7V37.6h20.6V13.1h21.5v24.5
				h35.4v17.8h-35.6v56.2c0,16.3,2.8,20,16.9,20c4.6,0,14.5-1.3,19.7-3.5V146.1z"/>
		</g>
	</g>
</g>
</svg>
