<svg version="1.1" id="Layer_1" xmlns="http://www.w3.org/2000/svg" xmlns:xlink="http://www.w3.org/1999/xlink" x="0px" y="0px"
	 viewBox="0 0 500 500" style="enable-background:new 0 0 500 500;" xml:space="preserve">
<style type="text/css">
	.st0{fill:#BB521E;}
	.st1{fill:#D3945F;}
</style>
<path class="st0" d="M129.4,169.3l-40.5-40.5c-16.6,22-28,46.5-34.4,72.1c19.9,7.4,34.2,26.6,34.2,49.1s-14.3,41.7-34.2,49.1
	c6.4,25.6,17.8,50.1,34.4,72.1l40.5-40.5C96.8,282.1,96.8,217.9,129.4,169.3z"/>
<path class="st0" d="M411.3,250c0-22.5,14.3-41.7,34.2-49.1c-6.4-25.6-17.8-50.1-34.4-72.1l-40.5,40.5c32.6,48.7,32.6,112.8,0,161.4
	l40.5,40.5c16.6-22,28-46.5,34.4-72.1C425.6,291.7,411.3,272.5,411.3,250z"/>
<circle class="st0" cx="36.3" cy="250" r="36.3"/>
<circle class="st0" cx="463.7" cy="250" r="36.3"/>
<path class="st1" d="M250,411.3c22.5,0,41.7,14.3,49.1,34.2c25.6-6.4,50.2-17.8,72.1-34.4l-40.4-40.4
	c-23.7,15.9-51.6,24.5-80.8,24.5s-57.1-8.6-80.8-24.5l-40.4,40.4c22,16.6,46.5,28,72.1,34.4C208.3,425.6,227.5,411.3,250,411.3z"/>
<path class="st1" d="M299.1,54.5c-7.4,19.9-26.6,34.2-49.1,34.2s-41.7-14.3-49.1-34.2c-25.6,6.4-50.2,17.8-72.1,34.4l40.4,40.4
	c23.7-15.9,51.6-24.5,80.8-24.5s57.1,8.6,80.8,24.5l40.4-40.4C349.2,72.3,324.7,60.9,299.1,54.5z"/>
<circle class="st1" cx="250" cy="463.7" r="36.3"/>
<circle class="st1" cx="250" cy="36.3" r="36.3"/>
</svg>
